<?xml version="1.0" encoding="UTF-8" standalone="no"?>
<!-- Created with Inkscape (http://www.inkscape.org/) -->

<svg
   width="48"
   height="48"
   viewBox="0 0 12.7 12.7"
   version="1.1"
   id="svg46"
   inkscape:version="1.2.2 (732a01da63, 2022-12-09, custom)"
   sodipodi:docname="logo"
   xmlns:inkscape="http://www.inkscape.org/namespaces/inkscape"
   xmlns:sodipodi="http://sodipodi.sourceforge.net/DTD/sodipodi-0.dtd"
   xmlns="http://www.w3.org/2000/svg"
   xmlns:svg="http://www.w3.org/2000/svg">
  <sodipodi:namedview
     id="namedview48"
     pagecolor="#ffffff"
     bordercolor="#000000"
     borderopacity="0.25"
     inkscape:showpageshadow="2"
     inkscape:pageopacity="0.0"
     inkscape:pagecheckerboard="0"
     inkscape:deskcolor="#d1d1d1"
     inkscape:document-units="mm"
     showgrid="false"
     inkscape:zoom="14.638496"
     inkscape:cx="19.605839"
     inkscape:cy="30.023576"
     inkscape:window-width="2486"
     inkscape:window-height="1376"
     inkscape:window-x="74"
     inkscape:window-y="27"
     inkscape:window-maximized="1"
     inkscape:current-layer="layer1" />
  <defs
     id="defs43" />
  <g
     inkscape:label="Layer 1"
     inkscape:groupmode="layer"
     id="layer1">
    <path
       sodipodi:type="spiral"
       style="fill:none;fill-opacity:1;fill-rule:evenodd;stroke:#febeb0;stroke-width:2.80596;stroke-miterlimit:4;stroke-dasharray:none;stroke-opacity:1"
       id="path4518-3-2-5-6-2-2"
       sodipodi:cx="158.37202"
       sodipodi:cy="190.12202"
       sodipodi:expansion="5"
       sodipodi:revolution="6.9045696"
       sodipodi:radius="39.747547"
       sodipodi:argument="-18.188513"
       sodipodi:t0="0"
       d="m 158.37202,190.12202 c 1e-5,1e-5 0,1e-5 0,1e-5 -2e-5,1e-5 -5e-5,-4e-5 -6e-5,-5e-5 -8e-5,-2.4e-4 2.6e-4,-4e-4 4.3e-4,-4.3e-4 0.001,-1.6e-4 0.002,0.001 0.002,0.002 4e-5,0.003 -0.004,0.005 -0.007,0.005 -0.008,-8e-4 -0.0117,-0.0108 -0.0104,-0.0179 0.003,-0.0182 0.0248,-0.0248 0.0407,-0.021 0.0356,0.008 0.0476,0.051 0.0385,0.0826 -0.0186,0.0642 -0.0959,0.0848 -0.15366,0.0655 -0.10869,-0.0362 -0.14204,-0.16816 -0.10558,-0.26716 0.0644,-0.17495 0.27899,-0.22671 0.43983,-0.16259 0.27011,0.10768 0.3476,0.4421 0.24128,0.69234 -0.1711,0.40272 -0.67418,0.51519 -1.04971,0.34708 -0.58288,-0.26094 -0.74188,-0.99519 -0.48626,-1.54172 0.38461,-0.82235 1.42859,-1.04205 2.20333,-0.66595 1.13467,0.55083 1.43223,2.0017 0.89416,3.07511 -0.76962,1.53535 -2.74592,1.93131 -4.20362,1.17991 -2.04191,-1.05254 -2.56061,-3.69705 -1.5332,-5.64188 1.41265,-2.67405 4.8956,-3.34407 7.44974,-1.9651 3.4538,1.8647 4.30839,6.38703 2.48781,9.6943 -2.4252,4.40561 -8.22208,5.48323 -12.45037,3.1147 -5.55648,-3.11253 -6.90127,-10.45703 -3.86037,-15.80083 3.94703,-6.93612 13.15403,-8.59845 19.8371,-4.74067 8.57705,4.95108 10.61405,16.38133 5.77281,24.65949 -6.14924,10.51474 -20.21362,12.99092 -30.3777,6.97537 -12.78772,-7.56833 -15.77553,-24.73231 -8.36834,-37.11118 9.23751,-15.43771 30.02577,-19.01821 44.98953,-9.97322 10.63082,6.42591 17.22383,18.12672 17.88179,30.45711"
       inkscape:export-xdpi="54.691311"
       inkscape:export-ydpi="54.691311"
       transform="matrix(0.17847492,0,0,0.17847492,-23.004681,-26.646936)" />
  </g>
</svg>
